<?xml version="1.0" encoding="UTF-8"?>
<svg width="128px" height="128px" viewBox="0 0 128 128" version="1.1" xmlns="http://www.w3.org/2000/svg" xmlns:xlink="http://www.w3.org/1999/xlink">
    <title>bancodobrasil_br_retail_sm</title>
    <g id="bancodobrasil_br_retail_sm" stroke="none" stroke-width="1" fill="none" fill-rule="evenodd">
        <path d="M22,95.1928152 L30.8453079,89.2745601 L39.6906158,95.1928152 L22,107 L22,95.1928152 Z M107,33.8053519 L98.119868,39.7254399 L89.2745601,33.8053519 L107,22 L107,33.8053519 Z M107,78.6660557 L89.2745601,66.8607038 L68.0245601,81.0267595 L76.869868,86.9138563 L65.3632698,94.5953079 L40.5887097,78.0667155 L81.292522,50.9314516 L72.4472141,45.0113636 L22,78.6660557 L64.5,107 L107,78.6660557 Z M22,50.3321114 L39.6906158,62.1392962 L60.9406158,47.9714076 L52.0953079,42.0531525 L63.6019062,34.4046921 L88.3764663,50.9314516 L47.672654,78.0667155 L56.5179619,83.9868035 L107,50.3321114 L64.5,22 L22,50.3321114 L22,50.3321114 Z" id="Fill-2" fill="#273768"></path>
    </g>
</svg>