<?xml version="1.0" encoding="UTF-8"?>
<svg width="128px" height="128px" viewBox="0 0 128 128" version="1.1" xmlns="http://www.w3.org/2000/svg" xmlns:xlink="http://www.w3.org/1999/xlink">
    <title>itau_br_retail_sm</title>
    <g id="itau_br_retail_sm" stroke="none" stroke-width="1" fill="none" fill-rule="evenodd">
        <g id="Group" transform="translate(22.000000, 21.000000)">
            <path d="M14.1621591,0 L70.7161364,0 C74.6555966,0 77.9377557,1.40636364 80.6577557,4.12636364 C83.4714489,6.84636364 84.8782955,10.2226989 84.8782955,14.1616761 L84.8782955,70.7156534 C84.8782955,74.5614205 83.4714489,77.9372727 80.6577557,80.6572727 C77.9377557,83.3772727 74.6555966,84.7841193 70.7161364,84.7841193 L14.1621591,84.7841193 C10.2231818,84.7841193 6.84684659,83.3772727 4.12684659,80.6572727 C1.40684659,77.9372727 -9.60847563e-14,74.5614205 -9.60847563e-14,70.7156534 L-9.60847563e-14,14.1616761 C-9.60847563e-14,10.2226989 1.40684659,6.84636364 4.12684659,4.12636364 C6.84684659,1.40636364 10.2231818,0 14.1621591,0" id="Fill-2" fill="#292D78"></path>
            <path d="M64.8076705,48.1128977 L69.402983,48.1128977 L75.0303693,42.3918182 L68.8403409,42.3918182 L64.8076705,48.1128977 Z M63.1192614,49.5197443 L56.5539773,49.5197443 L56.5539773,61.805625 C56.5539773,65.088267 57.3981818,67.5271875 58.9928977,69.1214205 C60.3997443,70.528267 62.2755398,71.1850852 64.6198011,71.1850852 C67.9024432,71.1850852 70.3408807,69.8719318 71.8414205,67.3393182 L71.9355966,67.3393182 L71.9355966,70.7156534 L77.7503693,70.7156534 L77.7503693,49.5197443 L71.1850852,49.5197443 L71.1850852,61.8998011 C71.1850852,62.4624432 71.091392,62.931392 70.9976989,63.2124716 C70.2471875,64.9945739 68.9340341,65.9324716 66.9645455,65.9324716 C64.4324148,65.9324716 63.1192614,64.1508523 63.1192614,60.6803409 L63.1192614,49.5197443 Z M46.2375852,56.5539773 C41.9233523,56.5539773 38.6407102,57.2103125 36.390142,58.6171591 C34.0453977,60.0240057 32.8259375,62.0871875 32.8259375,64.8071875 C32.8259375,66.4951136 33.4822727,67.9961364 34.701733,69.2151136 C36.1085795,70.528267 37.8901989,71.1850852 40.0475568,71.1850852 C42.9549432,71.1850852 45.1123011,70.2467045 46.6128409,68.4650852 L46.8002273,68.4650852 L46.8002273,70.7156534 L52.8028693,70.7156534 L52.8028693,58.2419034 C52.8028693,55.4282102 52.052358,53.2713352 50.6455114,51.6766193 C48.9575852,49.895 46.4249716,48.9571023 43.0486364,48.9571023 C39.578608,48.9571023 36.6712216,49.6134375 34.4206534,51.0202841 L35.6396307,55.1471307 C37.5154261,54.0218466 39.578608,53.4587216 41.9233523,53.4587216 C44.8307386,53.4587216 46.2375852,54.3966193 46.2375852,56.366108 L46.2375852,56.5539773 Z M30.2001136,49.5197443 L26.1669602,49.5197443 L26.1669602,42.3918182 L19.7895455,42.3918182 L19.7895455,49.5197443 L16.787983,49.5197443 L16.787983,54.3966193 L19.7895455,54.3966193 L19.7895455,62.931392 C19.7895455,65.8392614 20.3521875,67.9961364 21.5711648,69.2151136 C22.790625,70.528267 24.5727273,71.1850852 26.7296023,71.1850852 C28.1364489,71.1850852 29.261733,70.9972159 30.2938068,70.6219602 L30.2001136,65.651392 C30.0122443,65.8392614 29.6369886,65.9324716 28.9806534,65.9324716 C27.9490625,65.9324716 27.1985511,65.5576989 26.7296023,64.8071875 C26.3543466,64.2445455 26.1669602,63.3066477 26.1669602,61.8998011 L26.1669602,54.3966193 L30.2001136,54.3966193 L30.2001136,49.5197443 Z M38.9222727,64.2445455 C38.9222727,61.7124148 41.4544034,60.5866477 46.4249716,60.6803409 L46.4249716,62.931392 L46.3312784,64.1508523 C46.0501989,64.9945739 45.4875568,65.651392 44.7370455,66.1203409 C43.9865341,66.7766761 43.0486364,67.0582386 42.0170455,67.0582386 C39.9538636,67.0582386 38.9222727,66.1203409 38.9222727,64.2445455 Z M7.03423295,70.7156534 L13.6932102,70.7156534 L13.6932102,42.3918182 L7.03423295,42.3918182 L7.03423295,70.7156534 Z" id="Fill-3" fill="#FFF101"></path>
        </g>
    </g>
</svg>