<?xml version="1.0" encoding="UTF-8"?>
<svg width="128px" height="128px" viewBox="0 0 128 128" version="1.1" xmlns="http://www.w3.org/2000/svg" xmlns:xlink="http://www.w3.org/1999/xlink">
    <title>nubank_sm</title>
    <g id="nubank_sm" stroke="none" stroke-width="1" fill="none" fill-rule="evenodd">
        <g id="nubank" transform="translate(18.000000, 39.000000)" fill="#820AD1">
            <path d="M0.0544962576,20.2453328 C-0.0681203219,22.560498 0.0544962576,24.9110559 0.0544962576,27.2030329 C0.0544962576,31.8602129 0.0544962576,36.5173929 0.0544962576,41.174573 C0.0544962576,43.907127 0.0544962576,46.6823962 0.0544962576,49.4149502 C0.0544962576,49.4161706 0.0544962576,49.4149502 0.0544962576,49.4149502 L12.2006803,49.4149502 C12.2006803,49.4149502 12.2090135,38.4737503 12.2006803,29.0666371 C12.1947281,22.7350203 12.1554432,17.0905083 12.2006803,15.9335359 C12.4161522,10.4440192 13.8827893,6.85716065 16.6220199,3.92323487 C16.4113099,3.91469182 16.2005998,3.90981008 15.9886993,3.90981008 C10.0709613,3.90981008 4.52226347,7.38316815 1.81398465,12.7774909 C0.629484684,15.1329305 0.191398264,17.6665536 0.0544962576,20.2453328" id="Fill-1"></path>
            <path d="M24.907507,0 C20.3647413,0 16.5005334,1.82088905 13.5886873,4.93910052 C22.6396955,4.93910052 28.4991014,11.2572926 28.8264758,21.3197794 C28.9014743,23.627622 28.9252833,35.9808652 28.9252833,35.9808652 L28.9252833,50.4149502 L41.0702769,50.4149502 C41.0702769,50.4149502 41.0702769,40.4171465 41.0702769,30.9026351 C41.0702769,25.0042727 41.1167046,19.8979726 40.7155222,16.3818993 C39.5964971,6.55617692 33.7394721,0 24.907507,0" id="Fill-2"></path>
            <path d="M91.9455037,29.3644233 C92.0681203,27.0504785 91.9455037,24.6987002 91.9455037,22.4067232 C91.9455037,17.7495432 91.9455037,13.0923632 91.9455037,8.43518313 C91.9455037,5.70262913 91.9455037,2.92735989 91.9455037,0.194805884 C91.9455037,0.193585449 91.9455037,0.194805884 91.9455037,0.194805884 L79.7993197,0.194805884 C79.7993197,0.194805884 79.7909865,11.1372263 79.7993197,20.5443394 C79.8052719,26.8759563 79.8457473,32.5192478 79.7993197,33.6774406 C79.5850383,39.1669574 78.1172107,42.7538159 75.3791705,45.6865212 C75.5886901,45.6950643 75.7994002,45.7011664 76.0113007,45.7011664 C81.9290387,45.7011664 87.4777365,42.2265879 90.1872058,36.8334856 C91.3705153,34.4768256 91.8097922,31.9432025 91.9455037,29.3644233" id="Fill-3"></path>
            <path d="M64.0936834,50.6097561 C68.6364491,50.6097561 72.500657,48.788867 75.4113127,45.6706556 C66.3603045,45.6706556 60.5008986,39.3524635 60.1735242,29.2899767 C60.0985257,26.9821341 60.0663835,21.2534121 60.0663835,14.6179069 C60.0663835,7.36242075 60.0663835,0.182601534 60.0663835,0.182601534 L47.9297231,0.194805884 C47.9297231,0.194805884 47.9297231,10.1926096 47.9297231,19.7083414 C47.9297231,25.6067039 47.8844859,30.713004 48.2844778,34.2278568 C49.4046934,44.0535792 55.2617183,50.6097561 64.0936834,50.6097561" id="Fill-4"></path>
        </g>
    </g>
</svg>